# xmcd
#
# Track frame offsets: 
#        150
#        14370
#        31130
#        49397
#        65370
#        82697
#        102050
#        129682
#        147707
#        166912
#        179220
#        199585
#        218195
#        233927
#        255562
#        272392
#
# Disc length: 3817 seconds
#
# Revision: 8
# Processed by: cddbd v1.5.2PL0 Copyright (c) Steve Scherf et al.
# Submitted via: ExactAudioCopyFreeDBPlugin 1.0
#
DISCID=e10ee710
DTITLE=John Denver - Collection [CD 2)
DYEAR=1997
DGENRE=Country
TTITLE0=Annie's song (1974)
TTITLE1=Children of the universe (1982)
TTITLE2=Windsong (1975)
TTITLE3=Two different directions (1991)
TTITLE4=Calypso  (1975)
TTITLE5=To the wild country (1977)
TTITLE6=A little further north (1990)
TTITLE7=Thanks to you (1990)
TTITLE8=Raven's child (1990)
TTITLE9=Alaska and me (1991)
TTITLE10=All this joy (1991)
TTITLE11=Tenderly calling (1991)
TTITLE12=Rocky Mountain suite (1973)
TTITLE13=Eagles and horses (1990)
TTITLE14=Never a doubt (1991)
TTITLE15=Ancient rhymes (1990)
EXTD=LaserLight 21183\n1997\nDelta Music GmbH\nD-50226 Frechen YEAR: 1
EXTD=997
EXTT0=
EXTT1=
EXTT2=
EXTT3=
EXTT4=
EXTT5=
EXTT6=
EXTT7=
EXTT8=
EXTT9=
EXTT10=
EXTT11=
EXTT12=
EXTT13=
EXTT14=
EXTT15=
PLAYORDER=
